<svg width="4320" height="2112" viewBox="0 0 4320 2112" fill="none" xmlns="http://www.w3.org/2000/svg">
<g id="Background">
<path id="Light Blue Background" fill-rule="evenodd" clip-rule="evenodd" d="M3868.63 1339.5C3972.08 1339.5 4217.38 1335.16 4317 1339.5V0H0V2101.86C126.206 2108.41 257.394 2112 393.362 2112C1953.16 2112 2521.53 1339.5 3868.63 1339.5Z" fill="url(#paint0_linear_1_316)"/>
<path id="Dark Blue Background" d="M4320 0V1957.61C4320 1957.61 3786 1558.89 3102 1558.89C2418 1558.89 2056.5 2112 1264.5 2112C472.5 2112 0 1639.84 0 1639.84V0H4320Z" fill="url(#paint1_linear_1_316)"/>
<mask id="mask0_1_316" style="mask-type:luminance" maskUnits="userSpaceOnUse" x="0" y="0" width="4320" height="2112">
<path id="Dark Blue Background_2" d="M4320 0V1957.61C4320 1957.61 3786 1558.89 3102 1558.89C2418 1558.89 2056.5 2112 1264.5 2112C472.5 2112 0 1639.84 0 1639.84V0H4320Z" fill="white"/>
</mask>
<g mask="url(#mask0_1_316)">
<circle id="Bottom Elipses" opacity="0.05" cx="2682" cy="1902" r="786" fill="white"/>
<circle id="Top Elipses" opacity="0.02" cx="768" cy="-315" r="786" fill="white"/>
</g>
</g>
<defs>
<linearGradient id="paint0_linear_1_316" x1="-1999.3" y1="1313.49" x2="-158.148" y2="4769.17" gradientUnits="userSpaceOnUse">
<stop stop-color="#52B4DA"/>
<stop offset="1" stop-color="#1E3E85"/>
</linearGradient>
<linearGradient id="paint1_linear_1_316" x1="-1934.13" y1="1372.09" x2="-54.415" y2="4789.43" gradientUnits="userSpaceOnUse">
<stop stop-color="#1E3E85"/>
<stop offset="1" stop-color="#336DA6"/>
</linearGradient>
</defs>
</svg>
